

<svg xmlns="http://www.w3.org/2000/svg" aria-hidden="true" style="position:absolute;width:0;height:0;overflow:hidden">
  <defs>
    <defs>
    <linearGradient id="css-grad-mac" x1="0%" y1="0%" x2="0%" y2="100%">
      <stop offset="0%" stop-color="#eeb055" />
      <stop offset="100%" stop-color="#d08f38" />
    </linearGradient>
    <linearGradient id="css-grad-apple" x1="0%" y1="0%" x2="0%" y2="100%">
      <stop offset="0%" stop-color="#fbe9ba" />
      <stop offset="100%" stop-color="#e7c885" />
    </linearGradient>
  </defs>
    <symbol id="icon-mac" viewBox="0 0 65 32">
      <path d="M1.167 0C.523 0 0 .523 0 1.169v42.616c0 .646.522 1.169 1.167 1.169h63.07c.645 0 1.167-.523 1.167-1.169V1.169C65.404.523 64.882 0 64.237 0z"/>
      <path d="M34.809 12.07q0 .761-.544 1.419c-.437.521-.965.822-1.538.775a2 2 0 0 1-.012-.192c0-.487.208-1.008.577-1.434q.276-.324.703-.538a2.05 2.05 0 0 1 .804-.232q.005.045.007.09.003.056.003.113z"/>
      <path d="M36.727 19.771q-.225.531-.534.98-.422.613-.688.849-.412.386-.885.398-.34 0-.817-.199a2.3 2.3 0 0 0-.88-.199q-.421 0-.905.199c-.484.199-.583.203-.782.21q-.453.02-.905-.408-.288-.256-.72-.879a6 6 0 0 1-.761-1.543 5.8 5.8 0 0 1-.32-1.839q0-1.02.432-1.757.34-.592.905-.934c.565-.342.785-.345 1.224-.352q.36 0 .947.225c.587.225.641.225.751.225q.124 0 .833-.265.669-.246 1.132-.205 1.254.103 1.882 1.011-1.122.694-1.11 1.941.01.971.689 1.613.307.297.688.461-.082.245-.175.47z"/>
    </symbol>
    <symbol id="icon-book-open-01" viewBox="0 0 32 32">
      <path stroke-linecap="round" stroke-linejoin="round" stroke-width="3" d="M29.333 8.267c0-1.493 0-2.24-.291-2.811a2.67 2.67 0 0 0-1.165-1.165C27.306 4 26.56 4 25.066 4h-.533c-2.987 0-4.48 0-5.621.581a5.33 5.33 0 0 0-2.331 2.331C16 8.053 16 9.546 16 12.533V28l.133-.2c.926-1.389 1.389-2.084 2.001-2.587a5.35 5.35 0 0 1 1.837-.983c.758-.23 1.593-.23 3.262-.23h1.833c1.494 0 2.24 0 2.811-.291.502-.256.91-.664 1.165-1.165.291-.57.291-1.317.291-2.811zM2.667 8.267c0-1.493 0-2.24.291-2.811.256-.502.664-.91 1.165-1.165C4.693 4 5.44 4 6.934 4h.533c2.987 0 4.48 0 5.621.581a5.33 5.33 0 0 1 2.331 2.331C16 8.053 16 9.546 16 12.533V28l-.133-.2c-.926-1.389-1.389-2.084-2.001-2.587a5.35 5.35 0 0 0-1.837-.983C11.271 24 10.436 24 8.767 24H6.934c-1.493 0-2.24 0-2.811-.291a2.67 2.67 0 0 1-1.165-1.165c-.291-.57-.291-1.317-.291-2.811z"/>
    </symbol>
    <symbol id="icon-eye-off" viewBox="0 0 32 32">
      <path stroke-linecap="round" stroke-linejoin="round" stroke-width="3.2" d="M23.92 23.92A13.43 13.43 0 0 1 16 26.667C6.667 26.667 1.333 16 1.333 16A24.6 24.6 0 0 1 8.08 8.08m5.12-2.427a12.2 12.2 0 0 1 2.8-.32C25.333 5.333 30.667 16 30.667 16a24.7 24.7 0 0 1-2.88 4.253m-8.96-1.426a4.003 4.003 0 0 1-5.755.102 3.99 3.99 0 0 1-.824-4.456 4 4 0 0 1 .927-1.298M1.333 1.333l29.333 29.333"/>
    </symbol>
    <symbol id="icon-log-in-01" viewBox="0 0 32 32">
      <path stroke-linecap="round" stroke-linejoin="round" stroke-width="3.2" d="M20 4h1.6c2.24 0 3.36 0 4.216.436a4 4 0 0 1 1.748 1.748C28 7.04 28 8.16 28 10.4v11.2c0 2.24 0 3.36-.436 4.216a4 4 0 0 1-1.748 1.748C24.96 28 23.84 28 21.6 28H20M13.333 9.333 20 16m0 0-6.667 6.667M20 16H4"/>
    </symbol>
    <symbol id="icon-Vector" viewBox="0 0 32 32">
      <path stroke-linecap="round" stroke-linejoin="round" stroke-width="2.56" d="M28.031 5.435a7.639 7.639 0 0 0-8.313-1.654 7.6 7.6 0 0 0-2.475 1.654l-1.47 1.47-1.47-1.47A7.627 7.627 0 1 0 3.515 16.223l12.258 12.258 12.258-12.258a7.639 7.639 0 0 0 1.654-8.313 7.7 7.7 0 0 0-1.654-2.475"/>
    </symbol>
    <symbol id="icon-ukraine" viewBox="0 0 32 32">
      <path fill="#ffda44" d="M16 32c8.837 0 16-7.163 16-16S24.837 0 16 0 0 7.163 0 16s7.163 16 16 16" style="fill:var(--color1, #ffda44)"/>
      <path fill="#338af3" d="M0 16C0 7.164 7.163 0 16 0s16 7.163 16 16z" style="fill:var(--color2, #338af3)"/>
    </symbol>
    <symbol id="icon-x" viewBox="0 0 32 32">
      <path stroke-linecap="round" stroke-linejoin="round" stroke-width="2.5" d="M24 8 8 24M8 8l16 16"/>
    </symbol>
    <symbol id="icon-eye" viewBox="0 0 40 32">
      <path stroke-linecap="round" stroke-linejoin="round" stroke-width="4" d="M29.9 25.233a16.78 16.78 0 0 1-9.9 3.433c-11.667 0-18.333-13.333-18.333-13.333a30.75 30.75 0 0 1 8.433-9.9M16.5 2.4A15.2 15.2 0 0 1 20 2c11.667 0 18.333 13.333 18.333 13.333a31 31 0 0 1-3.6 5.317m-11.2-1.783a4.987 4.987 0 0 1-5.531 1.228 5.004 5.004 0 0 1-2.695-6.672 5 5 0 0 1 1.159-1.623"/>
    </symbol>

  </defs>
</svg>
